{"title":"Riddick 2013 READNFO WEBRiP XViD - VAiN","uid":9117497,"size":1486868751,"categoryP":"video","categoryS":"movies","magnet":"?xt=urn:btih:fd252a7e6fd61e096229cbe69ed92370d66133da&amp;dn=Riddick+2013+READNFO+WEBRiP+XViD+-+VAiN&amp;tr=udp%3A%2F%2Ftracker.openbittorrent.com%3A80&amp;tr=udp%3A%2F%2Fopen.demonii.com%3A1337&amp;tr=udp%3A%2F%2Ftracker.coppersurfer.tk%3A6969&amp;tr=udp%3A%2F%2Fexodus.desync.com%3A6969","seeders":2,"leechers":0,"uploader":"TeX","files":4,"time":1383054740,"description":" &lt;a href=&quot;http://i.imgur.com/NR7dMko.jpg&quot; rel=&quot;nofollow&quot; target=&quot;_NEW&quot;&gt;http://i.imgur.com/NR7dMko.jpg&lt;/a&gt;\n\nVAiN . P R E S E N T S . . .\n\nRiddick 2013 READNFO WEBRiP XViD - VAiN\n\niMDB........: http://www.imdb.com/title/tt1411250/\nPLOT........: Left for dead on a sun-scorched planet,\n             Riddick finds himself up against an alien race of predators.\n             Activating an emergency beacon alerts two ships: one carrying a new breed of mercenary,\n             the other captained by a man from Riddick's past.\n\n\nT E C H N i C A L . i N F O . . .      \nGeneral\nComplete name                            : Riddick 2013 READNFO WEBRiP XViD - VAiNRiddick 2013 READNFO WEBRiP XViD - VAiN.avi\nFormat                                   : AVI\nFormat/Info                              : Audio Video Interleave\nFile size                                : 1.37 GiB\nDuration                                 : 1h 53mn\nOverall bit rate                         : 1 726 Kbps\nWriting application                      : VirtualDubMod 1.5.10.2 (build 2540/release)\nWriting library                          : VirtualDubMod build 2540/release\n\nVideo\nID                                       : 0\nFormat                                   : MPEG-4 Visual\nFormat profile                           : Advanced Simple@L5\nFormat settings, BVOP                    : 2\nFormat settings, QPel                    : No\nFormat settings, GMC                     : No warppoints\nFormat settings, Matrix                  : Default (MPEG)\nMuxing mode                              : Packed bitstream\nCodec ID                                 : XVID\nCodec ID/Hint                            : XviD\nDuration                                 : 1h 53mn\nBit rate                                 : 1 589 Kbps\nWidth                                    : 720 pixels\nHeight                                   : 384 pixels\nDisplay aspect ratio                     : 2.000\nOriginal display aspect ratio            : 1.85:1\nFrame rate                               : 23.976 fps\nColor space                              : YUV\nChroma subsampling                       : 4:2:0\nBit depth                                : 8 bits\nScan type                                : Progressive\nCompression mode                         : Lossy\nBits/(Pixel*Frame)                       : 0.240\nStream size                              : 1.26 GiB (92%)\nWriting library                          : XviD 64\n\nAudio\nID                                       : 1\nFormat                                   : MPEG Audio\nFormat version                           : Version 1\nFormat profile                           : Layer 3\nMode                                     : Joint stereo\nCodec ID                                 : 55\nCodec ID/Hint                            : MP3\nDuration                                 : 1h 53mn\nBit rate mode                            : Constant\nBit rate                                 : 128 Kbps\nChannel(s)                               : 2 channels\nSampling rate                            : 44.1 KHz\nCompression mode                         : Lossy\nStream size                              : 104 MiB (7%)\nAlignment                                : Split accross interleaves\nInterleave, duration                     : 42 ms (1.00 video frame)\nInterleave, preload duration             : 500 ms\n\n\n\n\n\nE N C O D E R S . N O T E S . . .      \n\nSOURCE......: Riddick 2013 WEBRiP HC XviD Mp3-KingStoner (Thanks)\nSAMPLE......: Yes\nADDED NOTE..: Changed a few things,\n             Is better than most cam's, more than watchable imo,\n             Check the sample first,\n             Enjoy...\n\n\nR E A D N F O . . .\nHas HC arabic subs &amp; not even sure if it is a webrip, might be a very good cam\n\n","torrent":{"xt":"urn:btih:fd252a7e6fd61e096229cbe69ed92370d66133da","amp;dn":"Riddick+2013+READNFO+WEBRiP+XViD+-+VAiN","amp;tr":["udp%3A%2F%2Ftracker.openbittorrent.com%3A80","udp%3A%2F%2Fopen.demonii.com%3A1337","udp%3A%2F%2Ftracker.coppersurfer.tk%3A6969","udp%3A%2F%2Fexodus.desync.com%3A6969"],"infoHash":"fd252a7e6fd61e096229cbe69ed92370d66133da","infoHashBuffer":{"type":"Buffer","data":[253,37,42,126,111,214,30,9,98,41,203,230,158,217,35,112,214,97,51,218]},"announce":[],"urlList":[]}}